<svg width="512" height="512" viewBox="0 0 1000 1000" fill="none" xmlns="http://www.w3.org/2000/svg">
  <rect width="1000" height="1000" rx="220" fill="#16171a" />
  <g transform="translate(62.5,817.3) scale(0.1,-0.1)">
    <path d="M2400 5523 c122 -24 282 -143 357 -266 34 -56 36 -58 57 -42 11 8 28 18 36 21 8 3 42 19 75 34 33 15 85 38 115 50 30 12 70 28 88 36 18 8 41 14 52 14 10 0 22 5 25 10 3 6 18 10 33 10 15 1 38 7 52 15 14 8 36 14 49 15 14 0 38 4 55 9 74 23 168 41 316 60 41 6 93 15 115 20 139 34 1019 32 1106 -3 9 -4 49 -11 90 -17 177 -23 197 -26 208 -33 6 -4 32 -11 59 -16 102 -19 147 -31 156 -40 6 -6 25 -10 42 -10 18 0 36 -4 39 -10 3 -5 14 -10 23 -10 9 0 30 -7 46 -15 15 -8 35 -15 42 -15 8 0 22 -4 32 -10 9 -5 35 -16 57 -26 69 -28 110 -49 113 -56 2 -5 11 -8 21 -8 9 0 22 -5 29 -12 6 -6 13 -10 15 -7 2 2 24 32 50 65 86 114 177 179 304 218 69 21 296 22 333 1 14 -8 35 -14 47 -15 26 0 125 -51 212 -110 89 -59 267 -242 350 -359 80 -111 181 -304 181 -344 0 -9 5 -19 10 -22 6 -3 10 -16 10 -28 0 -12 7 -31 15 -41 8 -11 15 -34 15 -52 0 -18 5 -36 10 -39 6 -3 10 -23 10 -44 0 -20 7 -61 16 -91 13 -42 15 -86 11 -224 -5 -155 -12 -211 -46 -351 -15 -63 -57 -175 -69 -187 -7 -7 -12 -17 -12 -23 0 -22 -65 -141 -117 -216 -38 -54 -41 -91 -22 -257 17 -146 -3 -366 -51 -562 -23 -92 -43 -157 -56 -182 -8 -14 -14 -33 -14 -42 0 -16 -3 -24 -34 -83 -9 -17 -16 -38 -16 -46 0 -9 -3 -17 -7 -19 -5 -1 -21 -28 -37 -58 -52 -101 -64 -121 -129 -220 -117 -175 -374 -425 -582 -565 -33 -22 -61 -43 -63 -47 -2 -5 -8 -8 -14 -8 -6 0 -26 -11 -44 -25 -18 -14 -38 -25 -45 -25 -7 0 -20 -6 -28 -14 -25 -22 -190 -103 -321 -157 -14 -6 -38 -17 -53 -25 -16 -8 -35 -14 -43 -14 -8 0 -22 -4 -32 -9 -26 -13 -84 -32 -112 -38 -14 -2 -34 -8 -45 -12 -28 -12 -102 -31 -155 -41 -25 -5 -76 -16 -115 -25 -38 -8 -102 -19 -141 -24 -39 -4 -76 -11 -82 -15 -27 -16 -302 -31 -597 -31 -310 0 -553 14 -625 35 -19 5 -53 10 -74 10 -22 0 -53 4 -70 9 -17 5 -56 14 -86 21 -86 17 -130 27 -195 45 -33 9 -73 19 -90 22 -16 3 -39 12 -50 19 -11 8 -29 14 -42 14 -12 0 -25 5 -28 10 -3 6 -16 10 -29 10 -12 0 -31 7 -42 15 -10 8 -27 15 -37 15 -9 0 -25 4 -35 10 -9 5 -35 16 -57 26 -53 22 -281 136 -325 163 -19 11 -42 24 -50 28 -17 8 -132 84 -140 93 -3 3 -18 14 -35 25 -107 67 -326 274 -430 405 -67 84 -125 166 -125 176 0 4 -6 15 -14 23 -8 9 -26 39 -42 66 -15 28 -36 64 -46 80 -10 17 -21 37 -24 45 -3 8 -10 26 -16 40 -5 14 -16 38 -24 53 -8 16 -14 35 -14 43 0 8 -4 22 -9 32 -24 48 -41 95 -41 115 0 13 -4 27 -9 33 -11 11 -29 91 -41 184 -5 36 -13 83 -19 105 -14 52 -14 429 0 478 9 34 7 41 -21 82 -17 25 -51 89 -76 143 -25 53 -50 105 -55 114 -5 10 -9 24 -9 32 0 7 -7 27 -15 42 -8 16 -15 39 -15 51 0 12 -4 25 -10 28 -5 3 -10 19 -10 35 0 16 -5 41 -11 57 -21 51 -31 156 -36 358 -5 192 2 280 28 380 6 22 13 57 16 78 3 20 9 40 14 43 5 3 9 16 9 29 0 13 6 36 14 52 41 81 66 136 66 144 0 6 8 22 19 37 10 15 36 54 57 86 87 132 348 369 454 412 71 29 87 36 102 44 10 6 30 10 45 10 16 0 35 5 43 11 17 11 186 6 260 -8z" fill="#ffffff" />
    <path d="M2145 5215 c-27 -12 -57 -26 -65 -29 -43 -17 -159 -103 -216 -160 -57 -57 -144 -174 -160 -216 -3 -8 -16 -37 -29 -65 -13 -27 -29 -68 -35 -90 -7 -22 -18 -58 -25 -80 -8 -22 -16 -65 -19 -95 -3 -30 -9 -82 -14 -115 -7 -59 -1 -226 12 -335 6 -49 18 -97 47 -196 5 -17 9 -40 9 -52 0 -11 4 -23 9 -27 5 -3 13 -20 17 -37 6 -30 15 -53 36 -88 5 -8 11 -23 14 -33 4 -9 17 -20 29 -23 37 -9 93 -75 109 -128 11 -35 13 -63 6 -100 -25 -155 -33 -315 -21 -457 7 -79 16 -158 22 -175 5 -17 9 -43 9 -58 0 -16 7 -49 15 -75 7 -25 19 -66 26 -91 6 -25 17 -58 24 -75 34 -79 46 -106 81 -180 21 -44 49 -94 61 -111 13 -17 23 -36 23 -42 0 -6 6 -15 14 -19 7 -4 15 -13 17 -20 7 -21 120 -154 190 -223 93 -92 195 -176 297 -242 48 -31 92 -61 97 -65 6 -5 17 -12 25 -16 8 -3 38 -20 65 -36 71 -42 169 -91 183 -91 7 0 12 -4 12 -10 0 -5 8 -10 18 -10 10 0 26 -6 37 -13 11 -7 45 -21 75 -31 63 -20 80 -27 133 -50 21 -9 46 -16 57 -16 10 0 22 -4 25 -10 3 -5 17 -10 31 -10 14 0 34 -5 45 -11 22 -12 92 -26 185 -38 34 -5 67 -12 75 -17 14 -9 88 -17 324 -36 380 -32 976 0 1181 63 17 5 44 9 60 9 17 0 39 7 50 15 10 8 33 15 51 15 17 0 34 4 37 9 3 5 18 11 33 14 37 6 148 47 185 67 10 6 26 10 37 10 10 0 24 7 31 15 7 8 19 15 26 15 13 0 31 8 74 31 8 5 33 18 55 29 22 11 56 30 75 42 19 11 49 28 65 37 17 9 44 26 62 39 17 12 34 22 37 22 6 0 47 29 157 114 74 56 281 262 325 321 16 22 39 51 52 65 12 14 22 29 22 33 0 5 10 23 23 40 31 45 42 64 75 132 48 99 62 132 62 148 0 9 5 19 10 22 6 3 10 17 10 31 0 14 5 35 12 47 13 24 24 76 38 177 5 36 14 81 20 100 12 43 12 406 -1 475 -18 97 -22 172 -10 208 14 41 63 87 92 87 23 0 47 21 65 56 7 13 19 36 27 51 9 15 23 46 32 68 9 22 20 48 25 57 6 10 10 28 10 41 0 13 4 27 9 33 37 38 49 418 18 539 -10 39 -21 86 -24 105 -3 19 -9 40 -12 45 -4 6 -16 33 -25 60 -39 111 -109 236 -183 330 -67 85 -199 196 -263 221 -8 3 -22 10 -30 15 -8 5 -22 12 -30 15 -8 3 -24 9 -35 14 -52 20 -132 27 -188 17 -44 -8 -69 -20 -106 -52 l-48 -41 20 -29 c17 -22 23 -50 28 -129 11 -174 0 -219 -63 -252 -52 -27 -104 -18 -177 30 -36 25 -86 64 -111 88 -45 44 -165 128 -181 128 -5 0 -9 5 -9 10 0 6 -8 10 -19 10 -10 0 -24 7 -31 15 -7 8 -19 15 -26 15 -14 0 -22 3 -82 33 -19 9 -40 17 -48 17 -8 0 -22 4 -32 9 -9 6 -44 17 -77 26 -33 9 -75 21 -93 27 -40 12 -118 26 -219 38 -40 4 -78 12 -84 16 -60 37 -1188 37 -1248 0 -7 -5 -47 -12 -89 -17 -113 -12 -187 -25 -210 -38 -11 -6 -34 -11 -50 -11 -16 0 -43 -7 -58 -15 -16 -8 -39 -15 -51 -15 -12 0 -25 -4 -28 -10 -3 -5 -17 -10 -30 -10 -13 0 -36 -6 -52 -14 -15 -8 -55 -26 -88 -41 -33 -15 -73 -34 -88 -42 -15 -8 -38 -20 -50 -26 -46 -24 -94 -63 -158 -128 -50 -51 -77 -70 -110 -79 -94 -25 -166 7 -204 89 -16 36 -16 46 -1 162 15 114 15 125 -1 148 -66 103 -219 142 -338 86z m1043 -1142 c41 -13 70 -32 109 -71 29 -29 53 -61 53 -72 0 -10 5 -22 10 -25 21 -13 11 -112 -16 -162 -53 -101 -120 -143 -226 -143 -74 0 -110 15 -167 68 -68 65 -90 136 -70 230 9 47 19 64 63 106 34 33 70 57 102 67 64 22 77 22 142 2z m2527 -7 c61 -22 137 -94 158 -152 22 -64 22 -105 -3 -159 -49 -107 -123 -155 -239 -155 -110 0 -187 47 -229 139 -26 59 -33 144 -13 164 6 6 11 19 11 28 0 30 104 122 152 135 60 16 116 16 163 0z m-1132 -695 c54 -23 85 -56 104 -108 15 -45 17 -109 3 -118 -5 -3 -10 -14 -10 -24 0 -23 -47 -74 -87 -94 -43 -20 -205 -31 -327 -22 -108 8 -145 25 -180 85 -25 45 -28 141 -4 190 46 96 121 121 334 114 92 -2 132 -8 167 -23z" fill="#16171a" />
  </g>
</svg>
